<?xml version="1.0" encoding="utf-8"?>
<!-- Generator: Adobe Illustrator 24.0.0, SVG Export Plug-In . SVG Version: 6.00 Build 0)  -->
<svg version="1.1" id="Capa_1" xmlns="http://www.w3.org/2000/svg" xmlns:xlink="http://www.w3.org/1999/xlink" x="0px" y="0px"
	 viewBox="0 0 283.46 283.46" style="enable-background:new 0 0 283.46 283.46;" xml:space="preserve">
<style type="text/css">
	.st0{fill:#050504;}
	.st1{fill:#040504;}
	.st2{fill:#C6362E;stroke:#E6B041;stroke-width:2.6446;stroke-miterlimit:10;}
	.st3{fill:#DB8F1B;stroke:#E6B041;stroke-width:2.4504;stroke-miterlimit:10;}
	.st4{fill:#DB8F1B;stroke:#DB8F1B;stroke-width:2.5458;stroke-miterlimit:10;}
	.st5{fill:none;}
	.st6{fill:#A21C26;}
	.st7{fill:#C6362E;}
	.st8{fill:#276839;stroke:#CCDBD0;stroke-width:4.0684;stroke-miterlimit:10;}
	.st9{fill:#050504;stroke:#040504;stroke-width:1.3708;stroke-miterlimit:10;}
	.st10{fill:#EBF2DE;stroke:#E4EDD2;stroke-width:0.3898;stroke-miterlimit:10;}
</style>
<g>
	<g>
		<path class="st0" d="M171.93,212.4c2.01,4.42,3.79,8.92,5.52,13.45c1.74,4.53,3.3,9.13,4.74,13.79c1.44,4.66,2.64,9.4,3.67,14.24
			c1.02,4.83,2.13,9.79,1.49,15.12l-5.14-3.01c0.54-0.33,0.93-0.55,1.4-0.8c0.45-0.24,0.9-0.46,1.36-0.67
			c0.92-0.41,1.86-0.79,2.83-1.1c1.92-0.64,3.97-1.05,6.1-1.1c2.11-0.06,4.37,0.38,6.28,1.47c0.95,0.56,1.76,1.29,2.42,2.09
			c0.65,0.82,1.1,1.73,1.42,2.65l-0.54,0.35c-1.43-1.2-2.93-1.97-4.44-2.19c-1.51-0.24-3.03-0.01-4.53,0.4
			c-1.51,0.43-2.99,1.07-4.45,1.83c-0.72,0.38-1.45,0.79-2.15,1.22c-0.67,0.43-1.45,0.9-1.98,1.3l-4.96,3.76l-0.18-6.76
			c-0.03-1.11,0.02-2.2,0.06-3.3c-0.02-1.13-0.06-2.27-0.04-3.41c-0.08-2.3-0.12-4.64-0.38-6.99c-0.46-4.69-1.33-9.39-2.28-14.07
			c-1.86-9.39-4.2-18.75-6.82-28.04L171.93,212.4z"/>
	</g>
	<g>
		<path class="st1" d="M159.87,208.88c-0.12,3.22-0.4,6.42-0.87,9.62c-0.48,3.2-1.04,6.4-2.21,9.62c-0.32,0.8-0.67,1.61-1.15,2.42
			c-0.5,0.8-1.09,1.65-2.16,2.35c-0.55,0.38-1.33,0.61-1.96,0.66c-0.65,0.06-1.23,0-1.76-0.1c-1.05-0.21-1.93-0.56-2.76-0.94
			c-3.22-1.6-5.79-3.63-8.37-5.63c-1.28-1-2.54-2.01-3.8-2.96c-1.24-0.93-2.55-1.92-3.63-2.53c-0.24-0.14-0.52-0.27-0.49-0.23
			c0.03-0.01,0.09,0.14,0.88,0.14c0.25-0.01,0.5-0.06,0.81-0.17c0.17-0.06,0.34-0.14,0.49-0.24c0.17-0.12,0.19-0.11,0.29-0.19
			c0.31-0.18,0.61-0.7,0.58-0.63c0.04-0.05,0.09-0.15,0.09-0.16c0,0.03-0.01,0.05-0.02,0.08c-0.01,0.02-0.05,0.22-0.07,0.31
			l-0.17,0.93c-0.13,0.67-0.21,1.42-0.31,2.17c-0.11,0.75-0.21,1.51-0.3,2.28c-0.86,6.18-1.67,12.54-3.48,18.9l-0.64,0
			c-0.92-3.2-1.42-6.41-1.8-9.64c-0.35-3.23-0.54-6.46-0.48-9.75c0.06-1.65,0.13-3.29,0.43-5.07c0.06-0.44,0.17-0.91,0.3-1.41
			c0.09-0.29,0.12-0.48,0.25-0.84l0.18-0.49c0.08-0.2,0.23-0.48,0.36-0.7c0.04-0.12,0.51-0.77,0.95-1.1
			c0.14-0.11,0.17-0.15,0.4-0.29c0.2-0.12,0.41-0.22,0.62-0.3c0.41-0.15,0.75-0.2,1.1-0.23c1.19-0.02,1.64,0.26,2.04,0.41
			c0.77,0.35,1.16,0.66,1.58,0.96c1.53,1.21,2.62,2.35,3.8,3.5c1.14,1.15,2.27,2.27,3.41,3.35c2.27,2.13,4.61,4.28,7,5.74
			c0.59,0.36,1.18,0.66,1.68,0.82c0.25,0.08,0.47,0.13,0.62,0.14c0.17,0,0.18,0.03,0.31-0.03c0.3-0.12,0.76-0.53,1.15-1.05
			c0.4-0.52,0.77-1.15,1.11-1.8c1.38-2.64,2.36-5.68,3.21-8.71c0.83-3.05,1.55-6.16,2.17-9.29L159.87,208.88z"/>
	</g>
	<g>
		<path class="st1" d="M107.12,129.75c-2.47,5.35-4.55,11.03-5.05,16.69c-0.24,2.79-0.01,5.63,1.17,7.74
			c1.1,2.15,3.23,3.32,5.71,3.9c2.47,0.53,5.06,0.21,7.54-0.63c1.25-0.38,2.49-0.89,3.72-1.43c1.24-0.53,2.49-1.11,3.72-1.76
			c2.5-1.24,4.96-2.7,7.46-4.2l3.74-2.34l1.91-1.19l0.97-0.6l0.5-0.29l0.25-0.15l0.13-0.07c0.04-0.03,0.01,0,0.1-0.07
			c0.09-0.06,0.21-0.08,0.29-0.07l-0.12,0.56c0.04,0.04,0.13,0.05,0.18,0.02c0.06-0.04,0,0.02,0,0.03l-0.07,0.12l-0.14,0.25
			l-0.29,0.5l-0.61,0.98c-0.41,0.65-0.87,1.27-1.31,1.9c-0.93,1.22-1.91,2.42-2.97,3.54c-2.11,2.26-4.48,4.31-7.14,6.05
			c-2.65,1.73-5.66,3.1-8.95,3.73c-3.27,0.64-6.82,0.56-10.12-0.45c-1.62-0.53-3.24-1.28-4.67-2.4c-1.43-1.11-2.59-2.64-3.28-4.28
			c-0.69-1.65-0.96-3.36-1-5c-0.04-1.65,0.15-3.24,0.44-4.78c0.64-3.07,1.73-5.94,2.98-8.7c1.27-2.75,2.73-5.38,4.41-7.88
			L107.12,129.75z"/>
	</g>
	<g>
		<path class="st1" d="M211.19,114.72c2.79,1.15,5.45,2.58,7.96,4.32c2.48,1.76,4.91,3.79,6.61,6.68c0.82,1.45,1.37,3.2,1.32,5.04
			c-0.03,1.84-0.7,3.62-1.63,5.09c-0.46,0.75-1.02,1.39-1.57,2.03c-0.59,0.57-1.17,1.2-1.8,1.7c-1.23,1.08-2.59,1.96-3.99,2.79
			c-2.82,1.58-5.82,2.8-8.9,3.61c-3.08,0.83-6.25,1.12-9.36,1.05c-3.12-0.1-6.19-0.5-9.19-1.22c-1.5-0.34-2.97-0.78-4.43-1.27
			c-0.72-0.27-1.44-0.52-2.15-0.83l-1.06-0.46l-0.52-0.25l-0.26-0.12c-0.06-0.06-0.26-0.04-0.06-0.16l-0.3-0.47
			c0.39-0.11,0.37-0.04,0.49-0.07l0.29-0.02l0.57-0.03l1.14-0.04l2.25-0.07l4.43-0.12c2.93-0.11,5.81-0.24,8.65-0.47
			c2.83-0.25,5.63-0.49,8.38-0.88c2.76-0.36,5.46-1.02,7.95-2.16c1.22-0.6,2.43-1.23,3.52-2.04c0.58-0.37,1.04-0.82,1.56-1.23
			c0.45-0.45,0.93-0.9,1.28-1.39c0.77-0.96,1.28-2.03,1.44-3.17c0.16-1.14-0.05-2.38-0.57-3.58c-1.03-2.43-3.01-4.65-5.16-6.57
			c-1.09-0.97-2.24-1.88-3.44-2.73c-1.19-0.87-2.43-1.7-3.7-2.44L211.19,114.72z"/>
	</g>
	<g>
		<g>
			<path class="st2" d="M64.59,77.7c0,0,88.77,123.89,89.62,129.09c0.84,5.21,0.99,25.22,10.84,9.6c0,0,3.4,28.61,12.84,2.82
				c9.44-25.79,52.06-182.99,52.06-182.99S115.55,14,85.04,39.65S54.98,64.25,64.59,77.7z"/>
			<path class="st3" d="M83.15,94.69c0,0,34.52-59.03,88.21-41.01c0,0,41.15,26.74,45.25,19.39c4.09-7.36-12.17,40.14-12.17,40.14
				s10.05,3.46,8.43,10.72c-1.61,7.26-10,17.51-14.71,9.06c2.5,4.49-27.16,110.49-24.41,95.88c0,0-6.75,1.09-10.41-18.03
				c0,0-50.06-61.86-57.05-81.56c0,0,3.55,23.43-6.71,11.74c-10.26-11.7-0.57-31.08-8.5-38.7S80.68,98.49,83.15,94.69z"/>
			<path class="st4" d="M60.66,68.61c41.48-2.34,59.26-32.06,164.05-26.58c6.97,0.36,15.51-8.63,6.75-27.09
				c-8.7-18.35-164.07,2.32-184.56,29.9C53.2,32.75,32.03,70.23,60.66,68.61z"/>
			<path class="st5" d="M119.81,127.09"/>
			<circle class="st6" cx="144.4" cy="160.6" r="8.35"/>
			<g>
				<path class="st7" d="M112.29,138.83c-0.77,0.57-1.49,1.18-2.17,1.81l31.59,42.37c0.8-0.48,1.59-0.99,2.36-1.57
					c11.77-8.77,14.2-25.43,5.42-37.19C140.71,132.48,124.06,130.05,112.29,138.83z"/>
				<path class="st6" d="M110.94,141.21l15.83,21.15c3.04-4.82,2.99-11.2-0.62-16.03C122.53,141.5,116.42,139.65,110.94,141.21z"/>
				<circle class="st6" cx="142.73" cy="158.89" r="8.63"/>
			</g>
			<g>
				<path class="st7" d="M200.96,113.37c0.63,0.13,1.26,0.22,1.89,0.27l9.71-35.13c-0.59-0.19-1.2-0.35-1.83-0.48
					c-9.66-1.95-19.67,4.37-22.37,14.13C185.66,101.92,191.31,111.42,200.96,113.37z"/>
				<path class="st6" d="M202.82,112.97l4.82-17.57c-3.87,0.65-7.3,3.57-8.4,7.59C198.13,107,199.68,110.92,202.82,112.97z"/>
				
					<ellipse transform="matrix(0.7414 -0.6711 0.6711 0.7414 -8.1929 156.5963)" class="st6" cx="199.09" cy="88.93" rx="6.09" ry="5.65"/>
			</g>
		</g>
		<g>
			
				<ellipse transform="matrix(0.9862 -0.1655 0.1655 0.9862 -15.1738 25.9271)" class="st8" cx="148.03" cy="104.04" rx="8.29" ry="1.07"/>
			
				<ellipse transform="matrix(0.9862 -0.1655 0.1655 0.9862 -13.7476 30.0377)" class="st8" cx="173.42" cy="97.53" rx="8.29" ry="1.07"/>
			<g>
				<circle class="st9" cx="146.87" cy="97.1" r="7.03"/>
				<circle class="st10" cx="145.39" cy="93.08" r="2"/>
			</g>
			<g>
				<circle class="st9" cx="172.25" cy="90.6" r="7.03"/>
				<circle class="st10" cx="171.84" cy="86.33" r="2"/>
			</g>
			<g>
				<path class="st1" d="M134.08,89.82c0.67-1.74,1.55-3.39,2.52-5c1-1.59,2.12-3.12,3.45-4.49c1.33-1.35,2.76-2.77,4.64-3.47
					c1.85-0.7,3.95-0.88,5.78-0.26l-0.02,0.18c-1.87,0.38-3.49,0.9-5.02,1.71c-0.37,0.22-0.75,0.43-1.13,0.62l-1.11,0.68
					c-0.39,0.2-0.74,0.48-1.1,0.74c-0.36,0.26-0.72,0.52-1.05,0.83c-1.37,1.16-2.59,2.52-3.7,3.97c-1.14,1.43-2.17,2.96-3.09,4.56
					L134.08,89.82z"/>
			</g>
			<g>
				<path class="st1" d="M183.6,79.62c-1.03-1.34-2.36-2.44-3.82-3.19c-1.45-0.77-3.03-1.21-4.62-1.39l-1.2-0.03
					c-0.4-0.02-0.8,0.08-1.2,0.11c-0.8,0.04-1.58,0.21-2.39,0.23c-0.41-0.01-0.81,0.1-1.22,0.13c-0.41,0.03-0.83,0.08-1.25,0.09
					c-0.83,0.12-1.69,0.21-2.62,0.19l-0.09-0.21c0.69-0.59,1.46-1.08,2.25-1.52c0.82-0.36,1.67-0.71,2.55-0.93
					c1.78-0.45,3.68-0.24,5.47,0.13c1.8,0.4,3.51,1.14,4.95,2.23c1.43,1.09,2.64,2.44,3.41,4.04L183.6,79.62z"/>
			</g>
			<g>
				<path class="st1" d="M156.98,107.98c1.47,1.14,2.88,2.27,4.34,3.29c0.74,0.49,1.46,0.98,2.23,1.36c0.75,0.39,1.52,0.7,2.25,0.77
					c0.73,0.11,1.34-0.05,1.84-0.51c0.53-0.44,0.94-1.16,1.26-1.94c0.64-1.58,0.96-3.39,1.38-5.19c0.31,1.83,0.4,3.71-0.06,5.62
					c-0.21,0.95-0.65,1.92-1.43,2.75c-0.39,0.41-0.93,0.71-1.49,0.91c-0.57,0.15-1.16,0.21-1.7,0.14c-2.18-0.35-3.75-1.57-5.14-2.82
					C159.07,111.06,157.89,109.61,156.98,107.98z"/>
			</g>
		</g>
	</g>
	<g>
		<path class="st1" d="M211.19,114.72c2.79,1.15,5.45,2.58,7.96,4.32c2.48,1.76,4.91,3.79,6.61,6.68c0.82,1.45,1.37,3.2,1.32,5.04
			c-0.03,1.84-0.7,3.62-1.63,5.09c-0.46,0.75-1.02,1.39-1.57,2.03c-0.59,0.57-1.17,1.2-1.8,1.7c-1.23,1.08-2.59,1.96-3.99,2.79
			c-2.82,1.58-5.82,2.8-8.9,3.61c-3.08,0.83-6.25,1.12-9.36,1.05c-3.12-0.1-6.19-0.5-9.19-1.22c-1.5-0.34-2.97-0.78-4.43-1.27
			c-0.72-0.27-1.44-0.52-2.15-0.83l-1.06-0.46l-0.52-0.25l-0.26-0.12c-0.06-0.06-0.26-0.04-0.06-0.16l-0.3-0.47
			c0.39-0.11,0.37-0.04,0.49-0.07l0.29-0.02l0.57-0.03l1.14-0.04l2.25-0.07l4.43-0.12c2.93-0.11,5.81-0.24,8.65-0.47
			c2.83-0.25,5.63-0.49,8.38-0.88c2.76-0.36,5.46-1.02,7.95-2.16c1.22-0.6,2.43-1.23,3.52-2.04c0.58-0.37,1.04-0.82,1.56-1.23
			c0.45-0.45,0.93-0.9,1.28-1.39c0.77-0.96,1.28-2.03,1.44-3.17c0.16-1.14-0.05-2.38-0.57-3.58c-1.03-2.43-3.01-4.65-5.16-6.57
			c-1.09-0.97-2.24-1.88-3.44-2.73c-1.19-0.87-2.43-1.7-3.7-2.44L211.19,114.72z"/>
	</g>
	<g>
		<path class="st1" d="M101.69,142.65c-0.37,2.35-0.61,4.71-0.39,6.99c0.09,1.14,0.32,2.24,0.69,3.25c0.35,1.02,0.87,1.94,1.54,2.69
			c0.3,0.41,0.71,0.71,1.06,1.05c0.42,0.27,0.8,0.59,1.27,0.79c0.87,0.49,1.89,0.76,2.9,1.01c2.04,0.42,4.15,0.35,6.23-0.11
			c2.08-0.47,4.08-1.39,5.98-2.47l5.78-3.36c1.96-1.14,3.94-2.33,5.95-3.55l3.07-1.82l1.59-0.9l0.81-0.45l0.42-0.22l0.21-0.11
			l0.11-0.05l0.03-0.02c0.03-0.02,0.07-0.05,0.11-0.06c0.08-0.04,0.17-0.04,0.23-0.04l-0.12,0.56c0.03,0.03,0.1,0.05,0.15,0.03
			c0.03-0.01,0.05-0.02,0.06-0.03c0,0-0.01,0.02-0.01,0.02l-0.05,0.1l-0.1,0.21L139,146.6l-0.45,0.82c-0.31,0.55-0.65,1.07-0.98,1.6
			c-0.7,1.03-1.43,2.04-2.23,2.99c-1.6,1.91-3.39,3.66-5.37,5.22c-1.99,1.55-4.21,2.85-6.63,3.77c-2.43,0.9-5,1.53-7.63,1.84
			c-2.64,0.29-5.41,0.09-7.98-0.75c-2.49-0.89-5.06-2.43-6.52-4.85c-0.75-1.17-1.22-2.47-1.45-3.76c-0.26-1.29-0.31-2.58-0.22-3.83
			c0.13-2.51,0.8-4.88,1.61-7.16L101.69,142.65z"/>
	</g>
</g>
</svg>
